<svg width="10" height="18" viewBox="0 0 10 18" fill="none" xmlns="http://www.w3.org/2000/svg">
<path d="M8.9436 0.00357662L6.7145 0C4.21018 0 2.59177 1.66045 2.59177 4.23043V6.18094H0.350505C0.156833 6.18094 0 6.33795 0 6.53162V9.35769C0 9.55136 0.157012 9.7082 0.350505 9.7082H2.59177V16.8393C2.59177 17.0329 2.7486 17.1898 2.94228 17.1898H5.86649C6.06016 17.1898 6.217 17.0328 6.217 16.8393V9.7082H8.83756C9.03123 9.7082 9.18806 9.55136 9.18806 9.35769L9.18914 6.53162C9.18914 6.43863 9.15212 6.34957 9.08649 6.28376C9.02086 6.21795 8.93144 6.18094 8.83845 6.18094H6.217V4.52746C6.217 3.73274 6.40638 3.3293 7.44162 3.3293L8.94325 3.32876C9.13674 3.32876 9.29357 3.17175 9.29357 2.97825V0.354085C9.29357 0.160769 9.13692 0.00393428 8.9436 0.00357662Z" fill="#1B1B1B"/>
</svg>
