<svg width="23" height="21" viewBox="0 0 23 21" fill="none" xmlns="http://www.w3.org/2000/svg">
	<path d="M22.1201 3.99369C21.9927 3.81116 21.7878 3.69834 21.5652 3.68883L7.76424 3.09395C7.36827 3.07662 7.03737 3.38233 7.02044 3.77646C7.00361 4.17044 7.30882 4.50333 7.7029 4.52026L20.5695 5.07491L18.0396 12.9682H6.78155L4.74761 1.89353C4.7029 1.65081 4.53626 1.44831 4.30643 1.35815L0.975181 0.0494358C0.608035 -0.0943057 0.193739 0.0860309 0.049549 0.452729C-0.0943917 0.819625 0.0858951 1.23417 0.452842 1.37836L3.41485 2.54198L5.48469 13.811C5.54708 14.1498 5.84233 14.3959 6.18692 14.3959H6.53026L5.74623 16.5736C5.68061 16.7561 5.70765 16.9587 5.81932 17.1171C5.93085 17.2757 6.11223 17.37 6.30586 17.37H6.85579C6.51503 17.7492 6.30586 18.2485 6.30586 18.7977C6.30586 19.9786 7.26675 20.9392 8.4474 20.9392C9.62805 20.9392 10.5889 19.9786 10.5889 18.7977C10.5889 18.2486 10.3798 17.7492 10.0391 17.37H14.7081C14.3672 17.7492 14.1581 18.2485 14.1581 18.7977C14.1581 19.9786 15.1188 20.9392 16.2997 20.9392C17.4806 20.9392 18.4412 19.9786 18.4412 18.7977C18.4412 18.2486 18.2321 17.7492 17.8914 17.37H18.5602C18.8888 17.37 19.1551 17.1036 19.1551 16.7751C19.1551 16.4465 18.8887 16.1803 18.5602 16.1803H7.15228L7.79466 14.3957H18.5601C18.8706 14.3957 19.1453 14.1951 19.2398 13.8998L22.2142 4.61969C22.2825 4.40789 22.2474 4.17632 22.1201 3.99369ZM8.44745 19.7497C7.92252 19.7497 7.49563 19.3228 7.49563 18.7979C7.49563 18.273 7.92252 17.8461 8.44745 17.8461C8.97238 17.8461 9.39922 18.273 9.39922 18.7979C9.39922 19.3228 8.97238 19.7497 8.44745 19.7497ZM16.2997 19.7497C15.7747 19.7497 15.3479 19.3228 15.3479 18.7979C15.3479 18.273 15.7747 17.8461 16.2997 17.8461C16.8246 17.8461 17.2514 18.273 17.2514 18.7979C17.2514 19.3228 16.8246 19.7497 16.2997 19.7497Z" fill="#1B1B1B" />
</svg>
