<svg width="18" height="21" viewBox="0 0 18 21" fill="none" xmlns="http://www.w3.org/2000/svg">
<path d="M8.58984 9.54432C5.95844 9.54432 3.8176 7.40365 3.8176 4.77225C3.8176 2.14084 5.95844 0 8.58984 0C11.2212 0 13.3621 2.14084 13.3621 4.77225C13.3621 7.40365 11.2212 9.54432 8.58984 9.54432ZM8.58984 1.43166C6.74784 1.43166 5.24925 2.93007 5.24925 4.77225C5.24925 6.61424 6.74784 8.11266 8.58984 8.11266C10.4318 8.11266 11.9304 6.61424 11.9304 4.77225C11.9304 2.93007 10.4318 1.43166 8.58984 1.43166Z" fill="#1B1B1B"/>
<path d="M16.464 20.0432H0.715828C0.32069 20.0432 0 19.7225 0 19.3274V15.9868C0 13.4871 2.03389 11.4532 4.53352 11.4532H12.6464C15.146 11.4532 17.1799 13.4871 17.1799 15.9868V19.3274C17.1799 19.7225 16.8592 20.0432 16.464 20.0432ZM1.43166 18.6115H15.7482V15.9868C15.7482 14.2765 14.3566 12.8849 12.6464 12.8849H4.53352C2.82329 12.8849 1.43166 14.2765 1.43166 15.9868V18.6115Z" fill="#1B1B1B"/>
</svg>
