<svg width="19" height="18" viewBox="0 0 19 18" fill="none" xmlns="http://www.w3.org/2000/svg">
<path d="M13.231 0H5.27707C2.57595 0 0.378418 2.19764 0.378418 4.89876V12.8527C0.378418 15.5539 2.57595 17.7514 5.27707 17.7514H13.231C15.9323 17.7514 18.1299 15.5538 18.1299 12.8527V4.89876C18.13 2.19764 15.9323 0 13.231 0ZM16.555 12.8527C16.555 14.6855 15.0639 16.1764 13.2311 16.1764H5.27707C3.44441 16.1765 1.95341 14.6855 1.95341 12.8527V4.89876C1.95341 3.06609 3.44441 1.57499 5.27707 1.57499H13.231C15.0638 1.57499 16.5549 3.06609 16.5549 4.89876V12.8527H16.555Z" fill="#1B1B1B"/>
<path d="M9.25412 4.30176C6.73192 4.30176 4.68002 6.35366 4.68002 8.87585C4.68002 11.3979 6.73192 13.4497 9.25412 13.4497C11.7763 13.4497 13.8282 11.3979 13.8282 8.87585C13.8282 6.35366 11.7763 4.30176 9.25412 4.30176ZM9.25412 11.8746C7.60048 11.8746 6.25502 10.5294 6.25502 8.87575C6.25502 7.22201 7.60038 5.87665 9.25412 5.87665C10.9079 5.87665 12.2532 7.22201 12.2532 8.87575C12.2532 10.5294 10.9078 11.8746 9.25412 11.8746Z" fill="#1B1B1B"/>
<path d="M14.0201 2.96631C13.7166 2.96631 13.4185 3.08916 13.2042 3.30441C12.9889 3.51861 12.8651 3.81681 12.8651 4.1213C12.8651 4.42486 12.989 4.72295 13.2042 4.9382C13.4184 5.1524 13.7166 5.2763 14.0201 5.2763C14.3246 5.2763 14.6217 5.1524 14.837 4.9382C15.0522 4.72295 15.1751 4.42475 15.1751 4.1213C15.1751 3.81681 15.0522 3.51861 14.837 3.30441C14.6228 3.08916 14.3246 2.96631 14.0201 2.96631Z" fill="#1B1B1B"/>
</svg>
