<svg width="20" height="20" viewBox="0 0 20 20" fill="none" xmlns="http://www.w3.org/2000/svg">
<path d="M19.8264 18.98L14.9661 14.1197C16.2699 12.6208 17.0592 10.6652 17.0592 8.52772C17.0592 3.82262 13.2322 0 8.53149 0C3.82639 0 0.00377655 3.82705 0.00377655 8.52772C0.00377655 13.2284 3.83083 17.0554 8.53149 17.0554C10.669 17.0554 12.6246 16.2661 14.1235 14.9623L18.9838 19.8226C19.0991 19.9379 19.2543 20 19.4051 20C19.5559 20 19.7111 19.9424 19.8264 19.8226C20.057 19.592 20.057 19.2106 19.8264 18.98ZM1.19668 8.52772C1.19668 4.48337 4.48715 1.19734 8.52706 1.19734C12.5714 1.19734 15.8574 4.4878 15.8574 8.52772C15.8574 12.5676 12.5714 15.8625 8.52706 15.8625C4.48715 15.8625 1.19668 12.5721 1.19668 8.52772Z" fill="#6A737B"/>
</svg>
