<svg width="174" height="26" viewBox="0 0 174 26" fill="none" xmlns="http://www.w3.org/2000/svg">
<path fill-rule="evenodd" clip-rule="evenodd" d="M0 7.04919V9.40777H4.81333V24.2471H9.63084V21.9061H7.67079V7.04919H0Z" fill="#1B1B1B"/>
<path fill-rule="evenodd" clip-rule="evenodd" d="M33.0201 7.04919V24.2471H29.9356V11.949L22.3185 21.5625L14.6702 11.9588V24.2471H9.63092V21.9061H11.6175V7.04919H14.141L22.3029 17.2149L30.4712 7.04919H33.0201Z" fill="#1B1B1B"/>
<mask id="mask0" mask-type="alpha" maskUnits="userSpaceOnUse" x="35" y="10" width="82" height="16">
<path fill-rule="evenodd" clip-rule="evenodd" d="M35.1942 10.9381H116.705V25.515H35.1942V10.9381Z" fill="white"/>
</mask>
<g mask="url(#mask0)">
<path fill-rule="evenodd" clip-rule="evenodd" d="M106.729 22.4942V14.4626H108.001V15.6657H108.103C108.284 15.3157 108.51 15.0502 108.782 14.8693C109.053 14.6887 109.361 14.5587 109.706 14.4795C110.051 14.4007 110.43 14.3609 110.843 14.3609H112.158H113.32C113.688 14.3609 114.036 14.3864 114.364 14.4371C114.692 14.488 114.994 14.5727 115.272 14.6914C115.549 14.8099 115.806 14.9937 116.044 15.242C116.292 15.502 116.465 15.8295 116.561 16.2248C116.657 16.6203 116.705 17.1965 116.705 17.9531V22.4942H115.433V18.4954C115.433 17.7726 115.405 17.2558 115.348 16.9449C115.291 16.6344 115.173 16.3718 114.992 16.157C114.765 15.9087 114.432 15.7334 113.991 15.6317C113.55 15.5301 112.888 15.4792 112.006 15.4792C111.021 15.4792 110.255 15.55 109.706 15.6911C109.158 15.8325 108.748 16.0668 108.476 16.3943C108.329 16.5751 108.222 16.7445 108.154 16.9026C108.086 17.0609 108.041 17.2303 108.018 17.4109C107.995 17.5917 107.987 17.7895 107.993 18.004C107.998 18.2186 108.001 18.4729 108.001 18.7665V22.4942H106.729ZM100.059 15.4792C99.2218 15.4792 98.5885 15.5104 98.1587 15.5723C97.7287 15.6346 97.3894 15.7447 97.1407 15.9027C96.8352 16.0949 96.6146 16.3971 96.479 16.8093C96.3432 17.2218 96.2753 17.7895 96.2753 18.5122C96.2753 19.3255 96.3657 19.9355 96.5468 20.3422C96.7276 20.7489 97.0388 21.037 97.48 21.2064C97.9437 21.3872 98.8939 21.4775 100.331 21.4775C101.247 21.4775 101.923 21.4436 102.358 21.3758C102.793 21.308 103.136 21.1839 103.385 21.003C103.667 20.7997 103.868 20.5005 103.987 20.105C104.106 19.7097 104.165 19.1505 104.165 18.4275C104.165 17.603 104.069 16.9817 103.877 16.5635C103.718 16.2475 103.515 16.0129 103.266 15.8605C103.017 15.708 102.729 15.6036 102.401 15.5469C102.072 15.4906 101.711 15.4651 101.315 15.4707C100.919 15.4765 100.5 15.4792 100.059 15.4792ZM99.8555 14.3608C100.308 14.3608 100.726 14.3553 101.111 14.3439C101.496 14.3329 101.858 14.3384 102.197 14.3608C102.536 14.3836 102.861 14.4315 103.173 14.5049C103.484 14.5785 103.786 14.7055 104.08 14.8861C104.589 15.1912 104.957 15.6261 105.183 16.1909C105.41 16.7559 105.523 17.5183 105.523 18.4783C105.523 19.5403 105.387 20.3592 105.115 20.9353C104.923 21.3648 104.66 21.6952 104.326 21.9265C103.993 22.1582 103.554 22.3247 103.011 22.4264C102.751 22.4717 102.406 22.5111 101.976 22.545C101.546 22.5789 101.032 22.5959 100.432 22.5959C99.8555 22.5959 99.3575 22.5874 98.9392 22.5704C98.5206 22.5535 98.1529 22.5222 97.8363 22.4773C97.5195 22.4322 97.251 22.3785 97.0304 22.3163C96.8098 22.2543 96.6088 22.1722 96.428 22.0706C95.8851 21.7884 95.4974 21.3648 95.2658 20.7998C95.0337 20.235 94.9179 19.4442 94.9179 18.4276C94.9179 17.3092 95.0818 16.4565 95.4099 15.8689C95.6361 15.4623 95.8962 15.1572 96.1906 14.954C96.4845 14.7506 96.8153 14.6039 97.1831 14.5134C97.5506 14.4231 97.9577 14.3751 98.4048 14.3693C98.8515 14.3638 99.335 14.3608 99.8555 14.3608ZM92.3578 22.4942H93.6473V14.4625H92.3578V22.4942ZM92.3578 12.4292H93.6473V10.9381H92.3578V12.4292ZM84.332 14.4625V12.4631H85.6046V14.4625H91.2379V15.5469H85.6046V19.0375C85.6046 19.3086 85.6017 19.5347 85.5961 19.7152C85.5903 19.8961 85.5932 20.0541 85.6046 20.1897C85.6157 20.3252 85.6441 20.4497 85.6895 20.5625C85.7345 20.6756 85.8082 20.7997 85.91 20.9352C86.0683 21.1274 86.3059 21.2656 86.6227 21.3504C86.9392 21.4351 87.4031 21.4775 88.0141 21.4775C88.5795 21.4775 88.9982 21.438 89.2696 21.3588C89.5412 21.28 89.7447 21.1386 89.8805 20.9352C89.9709 20.7886 90.0332 20.6107 90.0672 20.4015C90.101 20.1926 90.118 19.8508 90.118 19.3764V18.868H91.3736V19.3764C91.3736 19.9864 91.3423 20.4497 91.2804 20.7658C91.218 21.0822 91.1077 21.3647 90.9494 21.6131C90.7119 21.9633 90.3582 22.2146 89.889 22.3671C89.4194 22.5195 88.7606 22.5959 87.9122 22.5959C87.0411 22.5959 86.3623 22.5222 85.8761 22.3755C85.3896 22.2289 85.0278 21.9971 84.7902 21.6808C84.6091 21.4436 84.4874 21.1698 84.4253 20.8589C84.3631 20.5484 84.332 20.0769 84.332 19.4442V15.5469H82.3468V14.4625H84.332ZM76.8323 18.8173C76.1536 18.8173 75.5682 18.8033 75.0761 18.775C74.5841 18.7468 74.14 18.8462 73.7442 19.0731C73.416 19.2663 73.2521 19.6359 73.2521 20.1816C73.2521 20.7159 73.4443 21.0683 73.829 21.2388C74.1456 21.3982 75.2315 21.4776 77.0868 21.4776H78.3254C78.7212 21.4776 79.0775 21.4437 79.3944 21.3754C79.7109 21.3071 79.9628 21.1792 80.1495 20.9917C80.3361 20.8043 80.4294 20.5228 80.4294 20.1475C80.4294 19.7723 80.3217 19.4908 80.107 19.3034C79.892 19.1159 79.612 18.9881 79.2671 18.9198C78.9219 18.8515 78.5346 18.8173 78.1048 18.8173H76.8323ZM73.5745 16.8517H72.251C72.2397 16.7728 72.2341 16.705 72.2341 16.6484V16.5128C72.2341 15.9481 72.3584 15.516 72.6073 15.2165C72.856 14.9174 73.1899 14.7026 73.6084 14.5726C74.0267 14.4429 74.5077 14.3693 75.0507 14.3524C75.5936 14.3355 76.1591 14.327 76.7474 14.327C77.2225 14.327 77.6693 14.3244 78.0878 14.3186C78.5063 14.3129 78.8966 14.3329 79.2587 14.378C79.6205 14.4233 79.9543 14.5083 80.2597 14.6327C80.5652 14.7572 80.8478 14.9555 81.1081 15.2272C81.3117 15.431 81.4615 15.6349 81.5577 15.8387C81.6537 16.0426 81.719 16.2631 81.7528 16.5009C81.7869 16.7387 81.8009 16.9992 81.7952 17.2822C81.7895 17.5655 81.7869 17.8882 81.7869 18.2504V22.4942H80.5143L80.5482 21.5453H80.4803C80.2539 21.8503 80.0248 22.0764 79.7931 22.2231C79.5611 22.37 79.3011 22.4717 79.0126 22.5281C78.7242 22.5844 78.4018 22.6099 78.0455 22.6043C77.6891 22.5985 77.2791 22.5959 76.8153 22.5959C76.3513 22.5959 75.9216 22.6043 75.5257 22.6213C75.1296 22.6382 74.7623 22.6382 74.4228 22.6213C74.0835 22.6043 73.7667 22.5561 73.4727 22.4773C73.1784 22.3983 72.9014 22.2628 72.6413 22.0706C72.3584 21.8673 72.1632 21.6245 72.0558 21.342C71.9482 21.0597 71.8948 20.6642 71.8948 20.1559C71.8948 19.5348 71.9767 19.0603 72.1408 18.7325C72.3045 18.405 72.5846 18.1564 72.9806 17.987C73.2067 17.8967 73.566 17.826 74.0581 17.7752C74.5502 17.7244 75.1975 17.6989 76.0008 17.6989C76.5325 17.6989 77.0216 17.6877 77.4686 17.665C77.9152 17.6426 78.3196 17.6481 78.6817 17.6819C79.0437 17.7159 79.3689 17.7979 79.6574 17.9277C79.9458 18.0577 80.1974 18.2695 80.4124 18.5631H80.5143V17.6989C80.5143 16.9706 80.3897 16.4582 80.1409 16.1623C79.9146 15.8779 79.5697 15.6873 79.106 15.5903C78.642 15.4938 77.8898 15.4453 76.8493 15.4453C76.4081 15.4453 75.9894 15.4427 75.5936 15.4368C75.1975 15.4313 74.8498 15.4623 74.5502 15.53C74.2503 15.5978 74.0127 15.7223 73.8375 15.9028C73.662 16.0836 73.5745 16.3661 73.5745 16.75V16.8517ZM60.8811 22.4942V14.4626H62.1537V15.6657H62.2555C62.4363 15.3157 62.6627 15.0502 62.9342 14.8693C63.2057 14.6887 63.5138 14.5587 63.859 14.4795C64.2039 14.4007 64.5827 14.3609 64.9958 14.3609H66.3108H67.473C67.8406 14.3609 68.1884 14.3864 68.5166 14.4371C68.8446 14.488 69.1471 14.5727 69.4244 14.6914C69.7015 14.8099 69.9588 14.9937 70.1964 15.242C70.4451 15.502 70.6176 15.8295 70.7139 16.2248C70.8098 16.6203 70.8581 17.1965 70.8581 17.9531V22.4942H69.5855V18.4954C69.5855 17.7726 69.5572 17.2558 69.5007 16.9449C69.444 16.6344 69.3253 16.3718 69.1444 16.157C68.918 15.9087 68.5845 15.7334 68.1433 15.6317C67.7021 15.5301 67.0404 15.4792 66.1581 15.4792C65.174 15.4792 64.4075 15.55 63.859 15.6911C63.3102 15.8325 62.9003 16.0668 62.6288 16.3943C62.4816 16.5751 62.3743 16.7445 62.3065 16.9026C62.2385 17.0609 62.1932 17.2303 62.1706 17.4109C62.1479 17.5917 62.1394 17.7895 62.1452 18.004C62.1508 18.2186 62.1537 18.4729 62.1537 18.7665V22.4942H60.8811ZM58.1514 22.4942H59.4409V14.4625H58.1514V22.4942ZM58.1514 12.4292H59.4409V10.9381H58.1514V12.4292ZM51.6698 15.4792C50.8892 15.4792 50.2331 15.5075 49.7015 15.5639C49.1697 15.6206 48.7794 15.7164 48.5308 15.852C47.9085 16.1798 47.5976 16.9931 47.5976 18.292C47.5976 19.6025 47.9538 20.427 48.6665 20.7658C49.0737 20.9692 50.0181 21.0709 51.5001 21.0709C53.095 21.0709 54.113 20.9352 54.5542 20.6642C54.8708 20.4608 55.0943 20.1672 55.2245 19.783C55.3545 19.3992 55.4195 18.8569 55.4195 18.1564C55.4195 17.4675 55.3433 16.9507 55.1905 16.606C55.0378 16.2615 54.7804 15.9989 54.4185 15.8181C54.181 15.7052 53.8358 15.6206 53.3835 15.5639C52.9309 15.5075 52.3596 15.4792 51.6698 15.4792ZM55.4536 15.4792L55.4196 14.4626H56.7092V20.4693C56.7092 21.1143 56.6893 21.6774 56.6498 22.1582C56.61 22.6388 56.5621 23.0378 56.5055 23.3547C56.381 23.9883 56.0644 24.4863 55.5554 24.8484C55.2611 25.052 54.9586 25.2019 54.6476 25.2982C54.3363 25.3944 54.0084 25.4566 53.6635 25.4849C53.3182 25.513 52.948 25.5215 52.5522 25.5104C52.156 25.4989 51.7318 25.4934 51.2796 25.4934H49.9307C49.495 25.4934 49.0849 25.459 48.7005 25.3901C48.3158 25.3213 47.9651 25.2064 47.6485 25.0462C47.3317 24.8855 47.0602 24.6449 46.8341 24.3242C46.6755 24.1209 46.5737 23.9232 46.5287 23.7312C46.4833 23.539 46.4607 23.2568 46.4607 22.8839H47.7503C47.7842 23.1775 47.8437 23.4063 47.9284 23.5702C48.0133 23.7338 48.1575 23.8723 48.3612 23.9853C48.8134 24.245 49.7411 24.375 51.1438 24.375C52.3428 24.375 53.2194 24.3242 53.7738 24.2226C54.3279 24.1209 54.7126 23.9287 54.9276 23.6464C55.0634 23.4656 55.1652 23.2932 55.2331 23.1297C55.3009 22.9657 55.3459 22.7878 55.3687 22.5959C55.3912 22.4039 55.4027 22.1921 55.4027 21.9605C55.4027 21.729 55.4083 21.4606 55.4196 21.1556H55.3348C55.0859 21.4606 54.8343 21.6867 54.5798 21.8334C54.3253 21.9803 54.0424 22.0791 53.7314 22.1299C53.4201 22.1807 53.0781 22.2035 52.7049 22.1977C52.3316 22.1921 51.9015 22.1892 51.4153 22.1892C50.3294 22.1892 49.4866 22.1413 48.8871 22.0452C48.2874 21.9494 47.8293 21.7884 47.5127 21.5623C47.0716 21.2347 46.7492 20.8083 46.5456 20.283C46.342 19.7577 46.2402 19.0828 46.2402 18.2581C46.2402 16.462 46.7887 15.3098 47.886 14.8015C48.2365 14.632 48.6891 14.5163 49.2434 14.4541C49.7975 14.3921 50.6064 14.3608 51.6698 14.3608C51.9977 14.3608 52.2918 14.3582 52.5522 14.3524C52.8122 14.3469 53.0527 14.3524 53.2733 14.3693C53.4939 14.3863 53.7086 14.4202 53.918 14.4711C54.1272 14.5219 54.3449 14.6095 54.5712 14.7337C54.8878 14.9031 55.1537 15.1517 55.3687 15.4792H55.4536ZM40.1318 18.8173C39.4531 18.8173 38.8676 18.8033 38.3756 18.775C37.8836 18.7468 37.4395 18.8462 37.0437 19.0731C36.7154 19.2663 36.5516 19.6359 36.5516 20.1816C36.5516 20.7159 36.7438 21.0683 37.1285 21.2388C37.4451 21.3982 38.531 21.4776 40.3863 21.4776H41.625C42.0207 21.4776 42.3771 21.4437 42.6939 21.3754C43.0104 21.3071 43.2623 21.1792 43.449 20.9917C43.6356 20.8043 43.7289 20.5228 43.7289 20.1475C43.7289 19.7723 43.6213 19.4908 43.4065 19.3034C43.1916 19.1159 42.9115 18.9881 42.5666 18.9198C42.2214 18.8515 41.8342 18.8173 41.4043 18.8173H40.1318ZM36.874 16.8517H35.5505C35.5391 16.7728 35.5336 16.705 35.5336 16.6484V16.5128C35.5336 15.9481 35.6579 15.516 35.9068 15.2165C36.1555 14.9174 36.4893 14.7026 36.9079 14.5726C37.3263 14.4429 37.8072 14.3693 38.3502 14.3524C38.8931 14.3355 39.4587 14.327 40.0469 14.327C40.5221 14.327 40.9688 14.3244 41.3874 14.3186C41.8057 14.3129 42.196 14.3329 42.5582 14.378C42.92 14.4233 43.2539 14.5083 43.5593 14.6327C43.8647 14.7572 44.1473 14.9555 44.4076 15.2272C44.6113 15.431 44.7611 15.6349 44.8573 15.8387C44.9532 16.0426 45.0185 16.2631 45.0524 16.5009C45.0863 16.7387 45.1003 16.9992 45.0948 17.2822C45.089 17.5655 45.0863 17.8882 45.0863 18.2504V22.4942H43.8138L43.8477 21.5453H43.7798C43.5535 21.8503 43.3243 22.0764 43.0927 22.2231C42.8607 22.37 42.6006 22.4717 42.3121 22.5281C42.0236 22.5844 41.7013 22.6099 41.345 22.6043C40.9886 22.5985 40.5785 22.5959 40.1148 22.5959C39.6509 22.5959 39.221 22.6043 38.8252 22.6213C38.4291 22.6382 38.0617 22.6382 37.7223 22.6213C37.383 22.6043 37.0662 22.5561 36.7722 22.4773C36.4779 22.3983 36.2008 22.2628 35.9408 22.0706C35.6579 21.8673 35.4628 21.6245 35.3554 21.342C35.2477 21.0597 35.1942 20.6642 35.1942 20.1559C35.1942 19.5348 35.2761 19.0603 35.4402 18.7325C35.604 18.405 35.884 18.1564 36.2802 17.987C36.5062 17.8967 36.8655 17.826 37.3576 17.7752C37.8497 17.7244 38.497 17.6989 39.3003 17.6989C39.8319 17.6989 40.3211 17.6877 40.7681 17.665C41.2148 17.6426 41.6191 17.6481 41.9813 17.6819C42.3431 17.7159 42.6684 17.7979 42.9569 17.9277C43.2454 18.0577 43.497 18.2695 43.7119 18.5631H43.8138V17.6989C43.8138 16.9706 43.6891 16.4582 43.4405 16.1623C43.214 15.8779 42.8691 15.6873 42.4054 15.5903C41.9415 15.4938 41.1893 15.4453 40.1487 15.4453C39.7076 15.4453 39.2889 15.4427 38.8931 15.4368C38.497 15.4313 38.1492 15.4623 37.8497 15.53C37.5498 15.5978 37.3122 15.7223 37.137 15.9028C36.9614 16.0836 36.874 16.3661 36.874 16.75V16.8517Z" fill="#1B1B1B"/>
</g>
<path fill-rule="evenodd" clip-rule="evenodd" d="M124.506 21.2607L120.1 14.405H117.938V22.4943H119.019V15.4013H119.494L124.067 22.4943H124.946L129.471 15.4013H129.922V22.4943H131.003V14.405H128.829L124.506 21.2607Z" fill="#1B1B1B"/>
<path fill-rule="evenodd" clip-rule="evenodd" d="M134.589 22.4943H142.535V21.5454H135.67V18.7699H142.25V17.821H135.67V15.3539H142.535V14.405H134.589V22.4943Z" fill="#1B1B1B"/>
<path fill-rule="evenodd" clip-rule="evenodd" d="M154.337 20.5669C154.151 21.0294 153.836 21.3162 153.393 21.4268C153.187 21.4743 153.023 21.508 152.9 21.5276C152.777 21.5475 152.65 21.5573 152.52 21.5573C152.389 21.5573 152.233 21.5555 152.051 21.5514C151.868 21.5475 151.623 21.5454 151.314 21.5454H146.765V15.3539H151.255C151.635 15.3539 151.975 15.3521 152.276 15.348C152.577 15.3441 152.844 15.356 153.078 15.3836C153.311 15.4114 153.515 15.4627 153.69 15.5378C153.864 15.613 154.01 15.7257 154.129 15.8758C154.454 16.2871 154.616 17.1254 154.616 18.3904C154.616 19.379 154.523 20.1043 154.337 20.5669ZM155.269 15.5201C154.961 15.0061 154.501 14.682 153.892 14.5475C153.393 14.4526 152.522 14.4052 151.279 14.4052H145.684V22.4944H151.362C152.462 22.4944 153.234 22.4549 153.678 22.3758C154.596 22.2177 155.19 21.6958 155.459 20.8102C155.546 20.5177 155.612 20.1717 155.655 19.7722C155.699 19.3731 155.721 18.9283 155.721 18.4379C155.721 17.6473 155.687 17.0305 155.62 16.5876C155.552 16.1448 155.436 15.789 155.269 15.5201Z" fill="#1B1B1B"/>
<mask id="mask1" mask-type="alpha" maskUnits="userSpaceOnUse" x="0" y="0" width="174" height="26">
<path fill-rule="evenodd" clip-rule="evenodd" d="M0 25.5151H174V0.179932H0V25.5151Z" fill="white"/>
</mask>
<g mask="url(#mask1)">
<path fill-rule="evenodd" clip-rule="evenodd" d="M159.153 22.4944H160.233V14.4052H159.153V22.4944Z" fill="#1B1B1B"/>
<path fill-rule="evenodd" clip-rule="evenodd" d="M165.805 19.8374L168.37 15.3539H168.798L171.328 19.8374H165.805ZM169.416 14.4052H167.693L163.097 22.4943H164.32L165.282 20.7864H171.838L172.812 22.4943H174L169.416 14.4052Z" fill="#1B1B1B"/>
<path fill-rule="evenodd" clip-rule="evenodd" d="M1.41949 2.73384C1.41949 1.32336 2.56449 0.179932 3.9769 0.179932C5.38931 0.179932 6.53431 1.32336 6.53431 2.73384C6.53431 4.14431 5.38931 5.28775 3.9769 5.28775C2.56449 5.28775 1.41949 4.14431 1.41949 2.73384Z" fill="#FF5A00"/>
</g>
</svg>
