<svg width="22" height="18" viewBox="0 0 22 18" fill="none" xmlns="http://www.w3.org/2000/svg">
<path d="M21.8344 2.035C21.0501 2.38012 20.2145 2.60888 19.3432 2.71995C20.2395 2.1831 20.9236 1.33948 21.2452 0.322639C20.4095 0.822464 19.4869 1.17552 18.5036 1.37254C17.7101 0.524949 16.5792 0 15.3455 0C12.9518 0 11.0248 1.94906 11.0248 4.33843C11.0248 4.68223 11.0538 5.0128 11.125 5.32751C7.53059 5.15164 4.35006 3.42341 2.21346 0.79073C1.84044 1.43997 1.62164 2.1831 1.62164 2.98309C1.62164 4.48521 2.39272 5.81675 3.54208 6.58765C2.84745 6.57443 2.16601 6.37212 1.58869 6.05344C1.58869 6.06667 1.58869 6.08386 1.58869 6.10105C1.58869 8.20878 3.08734 9.95949 5.0526 10.3628C4.70067 10.4593 4.31711 10.5056 3.91905 10.5056C3.64226 10.5056 3.36282 10.4897 3.10052 10.4315C3.66071 12.1492 5.25031 13.412 7.14044 13.453C5.66946 14.6073 3.80174 15.3029 1.77981 15.3029C1.42525 15.3029 1.08518 15.287 0.745117 15.2434C2.66029 16.4823 4.93002 17.1898 7.37769 17.1898C15.3336 17.1898 19.6833 10.5783 19.6833 4.84752C19.6833 4.65578 19.6767 4.47066 19.6675 4.28686C20.5255 3.67597 21.2465 2.91301 21.8344 2.035Z" fill="#1B1B1B"/>
</svg>
