<svg width="23" height="16" viewBox="0 0 23 16" fill="none" xmlns="http://www.w3.org/2000/svg">
<path d="M21.9856 1.47539C21.3815 0.40086 20.726 0.203214 19.3912 0.128052C18.0578 0.0375806 14.7047 0 11.7999 0C8.88948 0 5.53506 0.0375807 4.20304 0.126661C2.87101 0.203214 2.21405 0.399468 1.60441 1.47539C0.98224 2.54852 0.662109 4.39693 0.662109 7.65113C0.662109 7.65392 0.662109 7.65531 0.662109 7.65531C0.662109 7.65809 0.662109 7.65948 0.662109 7.65948V7.66227C0.662109 10.9026 0.98224 12.7649 1.60441 13.8269C2.21405 14.9014 2.86962 15.0963 4.20165 15.1867C5.53506 15.2647 8.88948 15.3106 11.7999 15.3106C14.7047 15.3106 18.0578 15.2647 19.3926 15.1881C20.7274 15.0977 21.3829 14.9028 21.987 13.8283C22.6147 12.7663 22.9321 10.9039 22.9321 7.66366C22.9321 7.66366 22.9321 7.65948 22.9321 7.6567C22.9321 7.6567 22.9321 7.65392 22.9321 7.65252C22.9321 4.39693 22.6147 2.54852 21.9856 1.47539ZM9.01335 11.8309V3.47969L15.9727 7.65531L9.01335 11.8309Z" fill="#1B1B1B"/>
</svg>
